<?xml version="1.0" encoding="UTF-8" standalone="no"?>
<!-- Created with Inkscape (http://www.inkscape.org/) -->

<svg
   width="100mm"
   height="100mm"
   viewBox="0 0 100 100"
   version="1.1"
   id="svg5"
   xml:space="preserve"
   inkscape:version="1.2.2 (b0a8486541, 2022-12-01)"
   sodipodi:docname="colored-app-icon.svg"
   xmlns:inkscape="http://www.inkscape.org/namespaces/inkscape"
   xmlns:sodipodi="http://sodipodi.sourceforge.net/DTD/sodipodi-0.dtd"
   xmlns="http://www.w3.org/2000/svg"
   xmlns:svg="http://www.w3.org/2000/svg"><sodipodi:namedview
     id="namedview7"
     pagecolor="#292929"
     bordercolor="#000000"
     borderopacity="0.24705882"
     inkscape:showpageshadow="true"
     inkscape:pageopacity="0"
     inkscape:pagecheckerboard="false"
     inkscape:deskcolor="#d1d1d1"
     inkscape:document-units="mm"
     showgrid="false"
     inkscape:zoom="1.0973349"
     inkscape:cx="110.26716"
     inkscape:cy="208.23178"
     inkscape:window-width="1920"
     inkscape:window-height="1000"
     inkscape:window-x="0"
     inkscape:window-y="0"
     inkscape:window-maximized="1"
     inkscape:current-layer="layer1"
     showborder="true"
     borderlayer="true" /><defs
     id="defs2" /><g
     inkscape:label="Layer 1"
     inkscape:groupmode="layer"
     id="layer1"><path
       id="path9"
       style="stroke-width:0.120419;fill:#ff936e;fill-opacity:1"
       d="m 18.200956,0 v 9.6335205 h -4.81676 c -2.649227,0 -4.9171622,0.9432345 -6.8037191,2.8298015 -1.8865675,1.886568 -2.8298014,4.154504 -2.8298014,6.803719 v 67.434644 c 0,2.649216 0.9432339,4.917151 2.8298014,6.803719 1.8865569,1.886558 4.1544921,2.829801 6.8037191,2.829801 h 47.321659 c -2.271323,-2.830473 -3.908304,-6.115714 -4.800223,-9.63352 H 13.384196 V 38.534082 H 80.81884 v 16.577283 c 3.314572,0.04796 6.587543,0.745678 9.63352,2.053621 V 19.267041 c 0,-2.649215 -0.943234,-4.917151 -2.829801,-6.803719 C 85.73599,10.576755 83.468055,9.6335205 80.81884,9.6335205 H 76.002079 V 0 h -9.63352 V 9.6335205 H 27.834477 V 0 Z"
       sodipodi:nodetypes="ccscsssscccccccsssccccccc" /><path
       d="m 22.363714,59.96262 7.774428,-7.774424 q 0.647836,-0.647838 1.52712,-0.925522 0.879253,-0.277672 1.804775,-0.09257 l 2.406373,0.509038 q -2.498925,2.961684 -3.933492,5.36806 -1.434566,2.406364 -2.776582,5.830813 z m 9.486653,4.211148 q 1.064352,-3.331898 2.892267,-6.29358 1.827917,-2.961686 4.419392,-5.553159 4.072317,-4.072316 9.301541,-6.085341 5.229227,-2.013016 9.764309,-1.226319 0.786696,4.535079 -1.203184,9.764304 -1.989882,5.229228 -6.062197,9.301542 -2.545198,2.545198 -5.553164,4.419393 -3.007961,1.874195 -6.339856,2.938548 z m 12.772269,-5.553162 q 1.064354,1.064361 2.614612,1.064361 1.550251,0 2.614612,-1.064361 1.064355,-1.064351 1.064355,-2.614613 0,-1.550254 -1.064355,-2.614605 -1.064361,-1.064359 -2.614612,-1.064359 -1.550258,0 -2.614612,1.064359 -1.064362,1.064351 -1.064362,2.614605 0,1.550262 1.064362,2.614613 z M 43.3269,80.879529 40.36521,74.076905 q 3.424448,-1.342014 5.853959,-2.776578 2.42951,-1.434568 5.391192,-3.933488 l 0.462794,2.406369 q 0.185144,0.925526 -0.09256,1.827914 -0.277672,0.902386 -0.925526,1.550263 z M 25.325406,70.09714 q 1.619669,-1.61967 3.933484,-1.64281 2.313812,-0.02318 3.933491,1.596532 1.619668,1.619673 1.619668,3.933494 0,2.313812 -1.619668,3.933491 -1.156914,1.156903 -3.864077,1.989881 -2.707166,0.83297 -7.473625,1.480837 0.647839,-4.766462 1.480844,-7.450492 0.83297,-2.684021 1.989883,-3.840933 z"
       id="path272"
       style="stroke-width:0.0462763;fill:#ff936e;fill-opacity:1" /><path
       d="m 86.861332,89.606728 2.745396,-2.745396 -7.25569,-7.255682 V 70.585065 H 78.429053 V 81.174442 Z M 80.390045,100 q -4.069062,0 -7.647882,-1.544282 -3.578814,-1.544281 -6.22616,-4.191629 -2.647342,-2.64734 -4.19163,-6.226161 -1.544282,-3.578811 -1.544282,-7.647883 0,-4.069062 1.544282,-7.647882 1.544288,-3.578814 4.19163,-6.22616 2.647346,-2.647342 6.22616,-4.19163 3.57882,-1.544282 7.647882,-1.544282 4.069072,0 7.647883,1.544282 3.578821,1.544288 6.226161,4.19163 2.647348,2.647346 4.191629,6.22616 Q 100,76.320983 100,80.390045 q 0,4.069072 -1.544282,7.647883 -1.544281,3.578821 -4.191629,6.226161 -2.64734,2.647348 -6.226161,4.191629 Q 84.459117,100 80.390045,100 Z"
       id="path333"
       style="fill:#ff936e;fill-opacity:1;stroke-width:0.0490249" /></g></svg>
